<svg xmlns="http://www.w3.org/2000/svg" width="195.245" height="37.151" viewBox="0 0 195.245 37.151"><path d="M2.588-6.958,10.6-18.652l-6.738-10.4a20.609,20.609,0,0,1-1.428-2.6,5.194,5.194,0,0,1-.476-2.087,2.43,2.43,0,0,1,.916-1.843A3.234,3.234,0,0,1,5.1-36.4a3.085,3.085,0,0,1,2.356.891A22.5,22.5,0,0,1,9.79-32.2l5.371,8.691L20.9-32.2q.708-1.1,1.208-1.88a9.894,9.894,0,0,1,.964-1.294,3.105,3.105,0,0,1,1.038-.769,3.234,3.234,0,0,1,1.331-.256,3.123,3.123,0,0,1,2.234.818,2.581,2.581,0,0,1,.867,1.941q0,1.636-1.88,4.443L19.6-18.652,27.2-6.958a19.525,19.525,0,0,1,1.489,2.551A4.614,4.614,0,0,1,29.15-2.49a3.033,3.033,0,0,1-.415,1.563A3,3,0,0,1,27.563.2,3.5,3.5,0,0,1,25.854.61,3.3,3.3,0,0,1,24.121.183,3.692,3.692,0,0,1,22.974-.879q-.439-.635-1.636-2.466l-6.3-9.912L8.35-3.052Q7.568-1.831,7.239-1.343a6.476,6.476,0,0,1-.793.952,3.419,3.419,0,0,1-1.1.732A3.8,3.8,0,0,1,3.857.61,3.084,3.084,0,0,1,1.672-.2,3.044,3.044,0,0,1,.806-2.539,8.391,8.391,0,0,1,2.588-6.958ZM33.8-4.3a8,8,0,0,0,.4,2.675A2.868,2.868,0,0,0,36,.05,3.766,3.766,0,0,0,37.45.3a3.806,3.806,0,0,0,1.575-.325A3.226,3.226,0,0,0,40.3-1.1a3.465,3.465,0,0,0,.625-1.45,11.135,11.135,0,0,0,.125-1.8v-17.5a7.114,7.114,0,0,0-.375-2.4A2.8,2.8,0,0,0,39-25.85a3.808,3.808,0,0,0-1.6-.3,3.78,3.78,0,0,0-1.525.275,3.489,3.489,0,0,0-1.075.725,3.76,3.76,0,0,0-.725,1.275A6.371,6.371,0,0,0,33.8-21.8Zm3.65-24.45A3.472,3.472,0,0,0,40-29.8a3.531,3.531,0,0,0,1.05-2.6A3.531,3.531,0,0,0,40-35a3.472,3.472,0,0,0-2.55-1.05,3.513,3.513,0,0,0-2.575,1.075A3.513,3.513,0,0,0,33.8-32.4a3.555,3.555,0,0,0,1.05,2.575A3.489,3.489,0,0,0,37.45-28.75ZM45.7-13.1a16.645,16.645,0,0,0,.775,5.05A12.65,12.65,0,0,0,48.9-3.65a11.706,11.706,0,0,0,4.2,3.1A14.224,14.224,0,0,0,59,.6a14.261,14.261,0,0,0,5.275-.975,12.734,12.734,0,0,0,4.325-2.8A12.733,12.733,0,0,0,71.475-7.55,14.745,14.745,0,0,0,72.5-13.1a15.088,15.088,0,0,0-.925-5.325A12.031,12.031,0,0,0,69.15-22.5a11.577,11.577,0,0,0-4.35-3.025,14.211,14.211,0,0,0-5.35-1.025,15.571,15.571,0,0,0-5.525.95,12.332,12.332,0,0,0-4.375,2.775,12.6,12.6,0,0,0-2.85,4.3A14.35,14.35,0,0,0,45.7-13.1Zm13.45-7.55a6.924,6.924,0,0,1,.975.075,6.962,6.962,0,0,1,1.25.325,4.422,4.422,0,0,1,1.425.85,5.922,5.922,0,0,1,1.25,1.55,9.63,9.63,0,0,1,.95,4.6,15.681,15.681,0,0,1-.225,2.725A6.957,6.957,0,0,1,63.85-8.1a7.09,7.09,0,0,1-1.7,1.875,4.779,4.779,0,0,1-3.05.875,5.079,5.079,0,0,1-4.375-2.1,9.516,9.516,0,0,1-1.525-5.7q0-.65.05-1.3A9.574,9.574,0,0,1,53.525-16a7.408,7.408,0,0,1,.725-1.8,5.964,5.964,0,0,1,1.3-1.6,4.443,4.443,0,0,1,1.775-1A6.974,6.974,0,0,1,59.15-20.65Zm41.1,3.7a13.918,13.918,0,0,0-.675-4.425A7.42,7.42,0,0,0,96.65-25a9.149,9.149,0,0,0-2.3-1.1,9.715,9.715,0,0,0-2.95-.4,8.341,8.341,0,0,0-2.65.4,7.74,7.74,0,0,0-2.1,1.05,9.444,9.444,0,0,0-2.2,2.25v-.1a7.54,7.54,0,0,0-.65-1.8,2.809,2.809,0,0,0-1.5-1.2,4.427,4.427,0,0,0-1.5-.25,3.675,3.675,0,0,0-2.35.75,2.884,2.884,0,0,0-1.025,1.475A8.043,8.043,0,0,0,77.2-21.85V-4a7.858,7.858,0,0,0,.475,2.625A2.706,2.706,0,0,0,79.55.15a3.55,3.55,0,0,0,1.3.2,3.469,3.469,0,0,0,2.7-1.1,2.779,2.779,0,0,0,.7-1.275,10.731,10.731,0,0,0,.2-1.775V-14.4a11.359,11.359,0,0,1,.325-2.85A3.9,3.9,0,0,1,86.3-19.4a4.418,4.418,0,0,1,2.7-.85,3.4,3.4,0,0,1,3.35,2,7.071,7.071,0,0,1,.55,3.1v11.1a9.179,9.179,0,0,0,.175,1.85A3.1,3.1,0,0,0,93.85-.7,3.655,3.655,0,0,0,96.55.35a3.829,3.829,0,0,0,1.775-.375A3.141,3.141,0,0,0,99.45-.95a3.363,3.363,0,0,0,.65-1.45,10.13,10.13,0,0,0,.15-1.85ZM109.5.45A3.753,3.753,0,0,0,112.25-.7a3.811,3.811,0,0,0,1.15-2.8,3.753,3.753,0,0,0-1.15-2.75A3.753,3.753,0,0,0,109.5-7.4a3.811,3.811,0,0,0-2.8,1.15,3.753,3.753,0,0,0-1.15,2.75,3.8,3.8,0,0,0,1.175,2.775A3.8,3.8,0,0,0,109.5.45Zm25.9-24.3-.1-.1a19.109,19.109,0,0,0-3.075-1.8,9.457,9.457,0,0,0-3.925-.7,10.591,10.591,0,0,0-4.8,1.05,9.63,9.63,0,0,0-3.475,2.9,12.941,12.941,0,0,0-2.05,4.225,18.3,18.3,0,0,0-.675,5.025,18.948,18.948,0,0,0,.9,6.1,12.481,12.481,0,0,0,2.475,4.4A10.4,10.4,0,0,0,124.25-.125a10.367,10.367,0,0,0,4.2.875A8.487,8.487,0,0,0,132.8-.275,9.388,9.388,0,0,0,135.75-3a3.846,3.846,0,0,0,.75,2.2,2.6,2.6,0,0,0,1.15.825,5.6,5.6,0,0,0,1.5.275,3.465,3.465,0,0,0,1.925-.475,2.964,2.964,0,0,0,1.075-1.2,4.323,4.323,0,0,0,.425-1.375q.075-.65.125-1.65V-31.25a8.6,8.6,0,0,0-.4-2.575,2.9,2.9,0,0,0-1.6-1.575,3.648,3.648,0,0,0-1.65-.35,3.24,3.24,0,0,0-3.2,1.9,5.934,5.934,0,0,0-.45,2.25v7.75Zm-5.5,3.4a6.124,6.124,0,0,1,2.525.6A4.651,4.651,0,0,1,134.6-17.5a10.448,10.448,0,0,1,.95,4.7,17.2,17.2,0,0,1-.125,1.975,9.513,9.513,0,0,1-.625,2.35,5.35,5.35,0,0,1-1.625,2.2,4.536,4.536,0,0,1-2.975.925,5.588,5.588,0,0,1-1.825-.3,4.419,4.419,0,0,1-1.675-1.1,7,7,0,0,1-1.575-3.05,13.921,13.921,0,0,1-.475-3.45,12.31,12.31,0,0,1,.275-2.65,7.7,7.7,0,0,1,.9-2.3,4.6,4.6,0,0,1,1.65-1.65A4.715,4.715,0,0,1,129.9-20.45Zm39.5,9.7a5.823,5.823,0,0,0,1.175-.1,2.658,2.658,0,0,0,.95-.425,2.144,2.144,0,0,0,.75-1.025,5.329,5.329,0,0,0,.275-1.9,15.151,15.151,0,0,0-.6-4.125,12.45,12.45,0,0,0-1.975-4,9.916,9.916,0,0,0-3.725-3.025,12.622,12.622,0,0,0-5.6-1.15,14.176,14.176,0,0,0-5.475,1.025,11.71,11.71,0,0,0-4.2,2.9,13.1,13.1,0,0,0-2.65,4.375,15.441,15.441,0,0,0-.925,5.4,16.439,16.439,0,0,0,.725,4.825,13.018,13.018,0,0,0,2.3,4.35,11.162,11.162,0,0,0,4.1,3.15A14.18,14.18,0,0,0,160.55.7,17.477,17.477,0,0,0,164.9.175a10.769,10.769,0,0,0,3.7-1.725,3.94,3.94,0,0,0,2-3.2,3.174,3.174,0,0,0-.975-2.325,3.118,3.118,0,0,0-2.275-.975,3.262,3.262,0,0,0-2.15.85q-.25.2-.7.6a1.073,1.073,0,0,1-.2.25,5.159,5.159,0,0,1-1.4.875,5.347,5.347,0,0,1-2.15.375,7.128,7.128,0,0,1-1.95-.3,4.832,4.832,0,0,1-2.1-1.4,4.992,4.992,0,0,1-1.125-1.8,10.787,10.787,0,0,1-.475-2.15ZM155.1-16.2l.05-.1a11.158,11.158,0,0,1,.575-1.55,6.152,6.152,0,0,1,.925-1.4,4.333,4.333,0,0,1,1.55-1.125,5.612,5.612,0,0,1,2.3-.425,5.684,5.684,0,0,1,2.425.5,4.406,4.406,0,0,1,1.775,1.5,7.058,7.058,0,0,1,.85,2.25l.05.35Zm26.75-5.65a12.486,12.486,0,0,0-.45-1.45,6.922,6.922,0,0,0-.675-1.3,3.243,3.243,0,0,0-1.125-1.05,3.376,3.376,0,0,0-1.7-.4,3.872,3.872,0,0,0-2.475.9,3.134,3.134,0,0,0-1.125,2.6,8.441,8.441,0,0,0,.45,2.4l5.7,17.1A7.164,7.164,0,0,0,182-.325,4.78,4.78,0,0,0,185.1.4a4.485,4.485,0,0,0,3.3-.95,3.191,3.191,0,0,0,.8-1.175q.3-.725.85-2.225l5.55-16.6a5.817,5.817,0,0,0,.45-2.1,3.04,3.04,0,0,0-1.125-2.475,3.874,3.874,0,0,0-2.525-.925,2.8,2.8,0,0,0-2.4,1,7.851,7.851,0,0,0-1.2,2.6l-2.9,10.6q-.35,1.3-.475,1.95T185.15-8l-.1-.5a23.965,23.965,0,0,0-.55-2.9Z" transform="translate(-0.806 36.401)" fill="#29d7f7"/></svg>